<svg xmlns="http://www.w3.org/2000/svg" width="24.365" height="22.681" viewBox="0 0 24.365 22.681"><g transform="translate(1.999 2)" fill="rgba(255,255,255,0)"><path d="M 10.1836109161377 19.47937202453613 L 9.629020690917969 19.1097412109375 C 4.475831031799316 15.67522144317627 1.147920966148376 12.24683094024658 -0.2622790932655334 8.919781684875488 C -1.334099054336548 6.390191078186035 -1.228789091110229 3.947011232376099 0.03419091552495956 2.040191173553467 C 1.27626097202301 0.164941281080246 3.533941030502319 -0.9999887347221375 5.926180839538574 -0.9999887347221375 C 7.553297996520996 -0.9999887347221375 9.030122756958008 -0.4727789163589478 10.1836109161377 0.5032398104667664 C 11.33709907531738 -0.4727789163589478 12.81392383575439 -0.9999887347221375 14.44104099273682 -0.9999887347221375 C 16.83347129821777 -0.9999887347221375 19.09122085571289 0.1648812741041183 20.33323097229004 2.04003119468689 C 21.59616088867188 3.946771383285522 21.70140075683594 6.390011310577393 20.62955093383789 8.919671058654785 C 19.21930122375488 12.24683094024658 15.89139080047607 15.67522144317627 10.73820114135742 19.1097412109375 L 10.1836109161377 19.47937202453613 Z" stroke="none"/><path d="M 10.1836109161377 18.27762222290039 C 15.65927124023438 14.62818145751953 18.53104019165039 11.30817127227783 19.70879173278809 8.529531478881836 C 22.86393165588379 1.083120822906494 13.85191059112549 -2.477977514266968 10.1836109161377 1.917801260948181 C 6.51530933380127 -2.477978706359863 -2.496709108352661 1.083121180534363 0.6584309339523315 8.529531478881836 C 1.836180925369263 11.30817127227783 4.707951068878174 14.62818145751953 10.1836109161377 18.27762222290039 M 10.1836109161377 20.68112182617188 L 9.074420928955078 19.94186210632324 C 3.755860805511475 16.39712142944336 0.3047709167003632 12.82006168365479 -1.182989120483398 9.310030937194824 C -2.389979124069214 6.461411476135254 -2.253759145736694 3.683571338653564 -0.7995190620422363 1.487991333007812 C 0.6255109310150146 -0.6634787321090698 3.202641010284424 -1.999988675117493 5.926180839538574 -1.999988675117493 C 7.482333183288574 -1.999988675117493 8.958516120910645 -1.553756833076477 10.1836109161377 -0.7391207814216614 C 11.40870571136475 -1.553756833076477 12.88488864898682 -1.999988675117493 14.44104099273682 -1.999988675117493 C 17.16477012634277 -1.999988675117493 19.74199104309082 -0.6635386943817139 21.16694068908691 1.487831234931946 C 22.62114143371582 3.683331251144409 22.75728034973145 6.461231231689453 21.55030059814453 9.30980110168457 C 20.06245040893555 12.82006168365479 16.61136054992676 16.39712142944336 11.29280090332031 19.94186210632324 L 10.1836109161377 20.68112182617188 Z" stroke="none" fill="#999"/></g></svg>